<svg width="47" height="47" viewBox="0 0 47 47" fill="none" xmlns="http://www.w3.org/2000/svg">
<mask id="mask0" mask-type="alpha" maskUnits="userSpaceOnUse" x="0" y="0" width="47" height="47">
<path fill-rule="evenodd" clip-rule="evenodd" d="M0.000213623 0.138706H46.9327V46.0469H0.000213623V0.138706Z" fill="white"/>
</mask>
<g mask="url(#mask0)">
<path fill-rule="evenodd" clip-rule="evenodd" d="M23.4672 46.0469C10.5065 46.0469 0.000213623 35.7708 0.000213623 23.0931C0.000213623 10.4161 10.5065 0.138638 23.4672 0.138638C36.4266 0.138638 46.9329 10.4161 46.9329 23.0931C46.9329 35.7708 36.4266 46.0469 23.4672 46.0469Z" fill="#231F20"/>
</g>
<path fill-rule="evenodd" clip-rule="evenodd" d="M12.1953 29.2961C12.1953 35.0037 16.9262 39.6305 22.7612 39.6305V29.2961H12.1953Z" fill="#17B5E9"/>
<path fill-rule="evenodd" clip-rule="evenodd" d="M12.2837 29.3819C12.33 34.9652 16.9655 39.4981 22.6735 39.5441V29.3819H12.2837ZM22.8489 39.7163H22.7612C16.8862 39.7163 12.1076 35.0414 12.1076 29.2961V29.2103H22.8489V39.7163Z" fill="#17B5E9"/>
<mask id="mask1" mask-type="alpha" maskUnits="userSpaceOnUse" x="0" y="0" width="47" height="47">
<path fill-rule="evenodd" clip-rule="evenodd" d="M0 46.047H46.9327V0.138706H0V46.047Z" fill="white"/>
</mask>
<g mask="url(#mask1)">
<path d="M33.0765 19.2117V29.0462H23.0106V19.2117H33.0765Z" fill="#FCF8F3" stroke="#FCF8F3" stroke-width="0.5"/>
<path fill-rule="evenodd" clip-rule="evenodd" d="M22.8485 29.3819V39.5441C28.5566 39.4981 33.1913 34.9652 33.2383 29.3819H22.8485ZM22.7608 39.7163H22.6732V29.2103H33.4144V29.2961C33.4144 35.0414 28.6351 39.7163 22.7608 39.7163Z" fill="#FCF8F3"/>
<path fill-rule="evenodd" clip-rule="evenodd" d="M33.3264 29.2961C33.3264 35.0037 28.5956 39.6305 22.7606 39.6305V29.2961H33.3264Z" fill="#FCF8F3" stroke="#FCF8F3" stroke-width="0.2"/>
<path fill-rule="evenodd" clip-rule="evenodd" d="M22.7606 18.9617H33.3265V8.62801H22.7606V18.9617Z" fill="#FCF8F3"/>
<path fill-rule="evenodd" clip-rule="evenodd" d="M22.7606 29.3819H33.3265V8.62801H22.7606V29.3819Z" fill="#FCF8F3"/>
<path fill-rule="evenodd" clip-rule="evenodd" d="M22.8483 29.2104H33.2388V19.0475H22.8483V29.2104ZM22.6729 29.3819H33.4142V18.876H22.6729V29.3819Z" fill="#FCF8F3"/>
<path d="M22.8483 29.2104H22.7483V29.3104H22.8483V29.2104ZM33.2388 29.2104V29.3104H33.3388V29.2104H33.2388ZM33.2388 19.0475H33.3388V18.9475H33.2388V19.0475ZM22.8483 19.0475V18.9475H22.7483V19.0475H22.8483ZM22.6729 29.3819H22.5729V29.4819H22.6729V29.3819ZM33.4142 29.3819V29.4819H33.5142V29.3819H33.4142ZM33.4142 18.876H33.5142V18.776H33.4142V18.876ZM22.6729 18.876V18.776H22.5729V18.876H22.6729ZM22.8483 29.3104H33.2388V29.1104H22.8483V29.3104ZM33.3388 29.2104V19.0475H33.1388V29.2104H33.3388ZM33.2388 18.9475H22.8483V19.1475H33.2388V18.9475ZM22.7483 19.0475V29.2104H22.9483V19.0475H22.7483ZM22.6729 29.4819H33.4142V29.2819H22.6729V29.4819ZM33.5142 29.3819V18.876H33.3142V29.3819H33.5142ZM33.4142 18.776H22.6729V18.976H33.4142V18.776ZM22.5729 18.876V29.3819H22.7729V18.876H22.5729Z" fill="#FCF8F3"/>
<path fill-rule="evenodd" clip-rule="evenodd" d="M22.8483 18.876H33.2388V8.71379H22.8483V18.876ZM22.6729 19.0475H33.4142V8.54224H22.6729V19.0475Z" fill="#FCF8F3"/>
<path d="M22.8483 18.876H22.7483V18.976H22.8483V18.876ZM33.2388 18.876V18.976H33.3388V18.876H33.2388ZM33.2388 8.71379H33.3388V8.61379H33.2388V8.71379ZM22.8483 8.71379V8.61379H22.7483V8.71379H22.8483ZM22.6729 19.0475H22.5729V19.1475H22.6729V19.0475ZM33.4142 19.0475V19.1475H33.5142V19.0475H33.4142ZM33.4142 8.54224H33.5142V8.44224H33.4142V8.54224ZM22.6729 8.54224V8.44224H22.5729V8.54224H22.6729ZM22.8483 18.976H33.2388V18.776H22.8483V18.976ZM33.3388 18.876V8.71379H33.1388V18.876H33.3388ZM33.2388 8.61379H22.8483V8.81379H33.2388V8.61379ZM22.7483 8.71379V18.876H22.9483V8.71379H22.7483ZM22.6729 19.1475H33.4142V18.9475H22.6729V19.1475ZM33.5142 19.0475V8.54224H33.3142V19.0475H33.5142ZM33.4142 8.44224H22.6729V8.64224H33.4142V8.44224ZM22.5729 8.54224V19.0475H22.7729V8.54224H22.5729Z" fill="#FCF8F3"/>
</g>
</svg>
